<svg xmlns="http://www.w3.org/2000/svg" version="1.1" xmlns:xlink="http://www.w3.org/1999/xlink" xmlns:svgjs="http://svgjs.com/svgjs" width="512" height="512" x="0" y="0" viewBox="0 0 512 512" style="enable-background:new 0 0 512 512" xml:space="preserve" fill-rule="evenodd"><g><path fill-rule="nonzero" d="M256 0c141.38 0 256 114.62 256 256S397.38 512 256 512 0 397.38 0 256 114.62 0 256 0zm146.16 162.14c-4.33-2.93-18.28 6.54-23.82 8.14 3.55-4.14 20.89-24.82 14.66-31.39-10.24 5.83-22.33 11.48-38.83 11.97-11.72-11.15-26.92-17.26-43.08-17.26-38.62 0-67.39 34.61-62.44 72.34-60.91-1.03-105.78-61.2-113.08-60.51a6.05 6.05 0 0 0-4.7 2.99c-16.71 29-6.5 54.6 3.75 69.93-4.6-2.74-12-5.06-12.14 3.09-.45 27.81 12.55 44.08 25.18 53.31-3.65.5-6.03 4.16-4.95 7.72 8.76 28.66 30 38.82 44.02 42.41-28.37 21.4-69.48 14.42-69.94 14.33-6.19-1.09-9.7 6.92-4.72 10.72 33.83 25.82 86.3 33.9 127.63 24.97 131.77-31.22 135.95-151.62 135.68-172.13 3.84-3.58 28.98-24.9 26.78-40.63zm-38.89 38.47c.02.33 2.04 32.96-12.5 69.32-19.43 48.58-57.73 79.96-113.72 93.23-.6.12-52.4 10.85-97.87-10.78 19.44-.81 46.36-6.29 65.3-27.55 1.58-1.77 1.96-4.51.99-6.68-3.82-8.46-32.1 1.01-47.7-30.44 5.54.24 21.23.14 20.25-8.54-1.15-10.15-36.99-5.63-42.87-47.09 5.17 2.16 19.58 6.34 21.89-1.57 2.72-9.33-35.51-28.13-19.44-68.46 16.23 16.9 62.52 59 118.64 55.78 3.76-.22 6.41-3.82 5.49-7.48-8.05-32.09 15.44-64.71 49.36-64.71 13.74 0 26.63 5.49 36.29 15.45 4.65 4.8 25.11-2.22 30.25-4.14-3.09 3.62-8.34 9.42-14.38 14.16a6.02 6.02 0 0 0-1.89 6.93c2.57 6.58 17.01 2.36 22.16 1.32-4.26 4.53-18.62 15.71-20.25 21.25zM256 11.81C121.14 11.81 11.81 121.14 11.81 256S121.14 500.19 256 500.19 500.19 390.86 500.19 256 390.86 11.81 256 11.81z" fill="#ffffff" data-original="#000000" opacity="1"></path></g></svg>