<svg xmlns="http://www.w3.org/2000/svg" version="1.1" xmlns:xlink="http://www.w3.org/1999/xlink" xmlns:svgjs="http://svgjs.com/svgjs" width="512" height="512" x="0" y="0" viewBox="0 0 512 512" style="enable-background:new 0 0 512 512" xml:space="preserve"><g><path d="M379.752 144.862h-247.5A34.287 34.287 0 0 0 98 179.11v153.78a34.287 34.287 0 0 0 34.248 34.248h247.5A34.287 34.287 0 0 0 414 332.89V179.11a34.287 34.287 0 0 0-34.248-34.248ZM398 332.89a18.269 18.269 0 0 1-18.248 18.248h-247.5A18.269 18.269 0 0 1 114 332.89V179.11a18.269 18.269 0 0 1 18.248-18.248h247.5A18.269 18.269 0 0 1 398 179.11Zm-70.954-90.277-86.06-49.686a15.458 15.458 0 0 0-23.186 13.387v99.373a15.425 15.425 0 0 0 23.187 13.387l86.06-49.686a15.459 15.459 0 0 0 0-26.774ZM233.8 304.749v-97.5L318.233 256ZM256 0C114.841 0 0 114.841 0 256s114.841 256 256 256 256-114.841 256-256S397.159 0 256 0Zm0 496C123.663 496 16 388.336 16 256S123.663 16 256 16s240 107.664 240 240-107.663 240-240 240Z" fill="#ffffff" data-original="#000000" opacity="1"></path></g></svg>